<?xml version="1.0" encoding="utf-8"?>
<!-- Generator: Adobe Illustrator 22.1.0, SVG Export Plug-In . SVG Version: 6.00 Build 0)  -->
<svg version="1.1" id="Livello_1" xmlns="http://www.w3.org/2000/svg" xmlns:xlink="http://www.w3.org/1999/xlink" x="0px" y="0px"
	 viewBox="0 0 1080 1080" style="enable-background:new 0 0 1080 1080;" xml:space="preserve">
<style type="text/css">
	.st0{fill:#225BAC;}
	.st1{fill:#C63D14;}
	.st2{fill:#FFFFFF;}
</style>
<g id="Livello_1_1_">
	<rect x="-0.1" class="st0" width="1080" height="1080"/>
</g>
<g>
	<path class="st1" d="M774.7,515.3c0-30.5-24.7-55.2-55.2-55.2c-2,0-3.9,0.1-5.8,0.3l75.8-223.5h-322l75.7,223.3
		c-1.1-0.1-2.2-0.1-3.4-0.1c-30.5,0-55.2,24.7-55.2,55.2c0,24.6,16.1,45.5,38.4,52.6c-11.8,20.4-26.6,38.7-43.4,54.6
		c-22.9,21.6-49,37.9-77.3,48c-33.7-17.3-49.6-55.8-35.2-89.5c1.6-3.8,3.3-7.7,4.9-11.5c24.4-5.7,42.6-27.6,42.6-53.7
		c0-30.5-24.7-55.2-55.2-55.2c-30.5,0-55.2,24.7-55.2,55.2c0,18.7,9.3,35.2,23.5,45.2c-13.7,31.1-33.7,63.6-40,101.3
		c-7.5,45.2,0,93.2,39.1,120.3c91,63.1,189.9-39.1,294-64.8c37.8-9.3,79.2-7.8,112.5-27.1c25-14.5,41.5-38.4,46.1-65.4
		c4.6-26.6-2.1-53.1-17.6-74.5C769.8,541.1,774.7,528.8,774.7,515.3L774.7,515.3z M594.9,515.5c0-0.1,0-0.1,0-0.2
		c0-20-10.7-37.5-26.6-47.2l60.2-121.8l60.3,123.1c-14.8,9.9-24.6,26.8-24.6,45.9c0,0.4,0,0.8,0,1.2L594.9,515.5L594.9,515.5z"/>
	<path class="st2" d="M788.1,515.3c0-33.5-24.1-61.5-56-67.4l76.1-224.4H448.7l76.2,224.8c-30.7,6.8-53.7,34.3-53.7,67
		c0,24.6,13,46.2,32.5,58.3c-9.4,13.9-20.5,27.1-33.2,39.1c-20.2,19-42.7,33.5-66.9,43c-24.4-15.3-34.7-44.2-24-69.4l0.8-2
		c0.5-1.2,1.1-2.5,1.6-3.7c26.8-9.3,46.1-34.9,46.1-64.8c0-37.9-30.8-68.6-68.6-68.6s-68.6,30.8-68.6,68.6
		c0,19.1,7.9,36.4,20.5,48.9c-2.3,4.9-4.7,9.8-7.2,14.9c-11.6,23.7-24.7,50.6-29.6,80.5c-9.8,59.3,6,106.8,44.7,133.5
		c23.5,16.3,47.3,22.7,71.2,22.6c45.1,0,90.8-22.7,135.4-44.9c32.2-16,65.4-32.5,98.3-40.6c12.2-3,24.8-4.8,38.1-6.7
		c26.4-3.8,53.7-7.7,77.9-21.8c28-16.2,47.2-43.5,52.6-74.7c4.7-26.8-0.9-53.7-14.6-76.5C784.5,540.6,788.1,528.4,788.1,515.3
		L788.1,515.3z M761.2,515.3c0,23-18.7,41.7-41.7,41.7c-23,0-41.7-18.7-41.7-41.7c0-23,18.7-41.7,41.7-41.7
		C742.5,473.6,761.2,492.3,761.2,515.3L761.2,515.3z M770.7,250.4l-67.2,198.1c-2.9,0.7-5.8,1.6-8.5,2.6l-66.4-135.4l-66.6,134.6
		c-2.9-1-5.8-1.8-8.9-2.4l-67-197.6H770.7L770.7,250.4z M539.8,473.6c23,0,41.7,18.7,41.7,41.7c0,23-18.7,41.7-41.7,41.7
		c-23,0-41.7-18.7-41.7-41.7C498.1,492.3,516.8,473.6,539.8,473.6L539.8,473.6z M359.4,474c23,0,41.7,18.7,41.7,41.7
		c0,23-18.7,41.7-41.7,41.7c-23,0-41.7-18.7-41.7-41.7C317.7,492.7,336.4,474,359.4,474L359.4,474z M766.2,622.9
		c-4.1,23.4-18.5,43.8-39.6,56c-19.7,11.4-43.3,14.8-68.2,18.4c-13.4,1.9-27.2,3.9-40.7,7.3c-35.7,8.8-70.3,26-103.8,42.6
		c-67,33.3-124.8,62-179.3,24.2c-39.9-27.7-38.1-78.9-33.4-107c4.3-26,16-50,27.2-73.1c2-4,3.8-7.9,5.7-11.8
		c5.6,2.2,11.5,3.8,17.7,4.5c-11.5,37.9,6.6,79.1,44.5,98.5l5.2,2.7l5.5-2c30-10.7,57.6-27.8,82-50.9c15.8-14.9,29.4-31.4,40.6-49.1
		c3.4,0.5,6.8,0.8,10.3,0.8c37.9,0,68.6-30.8,68.6-68.6c0-20.4-8.9-38.7-23-51.2l43.1-87.2l43.6,88.9
		c-13.1,12.5-21.2,30.1-21.2,49.6c0,37.9,30.8,68.6,68.6,68.6c14.5,0,28-4.6,39.1-12.3C766.4,587.4,769.2,605.2,766.2,622.9
		L766.2,622.9z"/>
</g>
</svg>
